<svg aria-hidden="true" style="position: absolute; width: 0; height: 0; overflow: hidden;" version="1.1" xmlns="http://www.w3.org/2000/svg" xmlns:xlink="http://www.w3.org/1999/xlink">
<defs>
<symbol id="icon-client-4" viewBox="0 0 59 32">
<path d="M13.759 12.296h-0.002c-1.363 0-2.468 0.996-2.468 2.225v0.002c0 1.229 1.105 2.225 2.468 2.225h0.002c1.363 0 2.468-0.996 2.468-2.225v-0.002c0-1.229-1.105-2.225-2.468-2.225z"></path>
<path d="M31.978 11.585c-0.004-1.707-0.758-3.343-2.096-4.551s-3.153-1.887-5.047-1.891v0c-1.894 0.003-3.709 0.683-5.049 1.89s-2.094 2.844-2.098 4.552v9.414c0 0 14.288-1.435 14.289-9.412v-0.001z"></path>
<path d="M6.286 24.088c0.003 1.188 0.528 2.326 1.46 3.166s2.194 1.314 3.511 1.317c1.317-0.003 2.579-0.477 3.511-1.317s1.456-1.978 1.46-3.165v-6.55c0 0-9.942 0.999-9.942 6.549zM11.257 25.262c-0.258 0-0.509-0.069-0.723-0.198s-0.381-0.312-0.479-0.527-0.124-0.45-0.074-0.678c0.050-0.228 0.174-0.437 0.356-0.601s0.414-0.276 0.666-0.321c0.252-0.045 0.514-0.022 0.752 0.067s0.441 0.239 0.584 0.432c0.143 0.193 0.219 0.42 0.219 0.652 0.001 0.154-0.033 0.308-0.098 0.451s-0.161 0.273-0.282 0.382c-0.121 0.109-0.265 0.196-0.423 0.256s-0.328 0.090-0.499 0.090v-0.004z"></path>
<path d="M20.348 23.151v2.438h-0.502v-2.438h0.502zM21.319 24.193v0.392h-1.108v-0.392h1.108zM21.436 23.151v0.393h-1.225v-0.393h1.225zM23.73 24.313v0.116c0 0.185-0.025 0.352-0.075 0.499s-0.121 0.273-0.213 0.377c-0.091 0.103-0.201 0.181-0.328 0.236-0.126 0.055-0.266 0.082-0.42 0.082-0.153 0-0.293-0.027-0.42-0.082-0.126-0.055-0.235-0.133-0.328-0.236-0.093-0.104-0.165-0.229-0.216-0.377-0.050-0.147-0.075-0.314-0.075-0.499v-0.116c0-0.186 0.025-0.353 0.075-0.499 0.050-0.147 0.121-0.273 0.213-0.377 0.093-0.104 0.202-0.183 0.328-0.238 0.127-0.055 0.267-0.082 0.42-0.082 0.154 0 0.294 0.027 0.42 0.082 0.127 0.055 0.237 0.134 0.328 0.238 0.093 0.104 0.164 0.229 0.214 0.377 0.051 0.146 0.077 0.312 0.077 0.499zM23.222 24.429v-0.119c0-0.13-0.012-0.243-0.035-0.342s-0.058-0.181-0.104-0.248-0.102-0.117-0.167-0.151c-0.066-0.035-0.141-0.052-0.226-0.052s-0.16 0.017-0.226 0.052c-0.065 0.034-0.12 0.084-0.166 0.151-0.045 0.067-0.079 0.15-0.102 0.248s-0.035 0.212-0.035 0.342v0.119c0 0.128 0.012 0.242 0.035 0.341 0.023 0.098 0.058 0.181 0.104 0.249 0.046 0.067 0.102 0.118 0.167 0.152s0.141 0.052 0.226 0.052c0.085 0 0.16-0.017 0.226-0.052s0.121-0.085 0.166-0.152c0.045-0.068 0.079-0.151 0.102-0.249 0.023-0.099 0.035-0.213 0.035-0.341zM25.36 24.951c0-0.044-0.007-0.083-0.020-0.117-0.012-0.036-0.036-0.068-0.070-0.097-0.035-0.030-0.083-0.060-0.146-0.089s-0.143-0.059-0.243-0.090c-0.11-0.036-0.215-0.076-0.315-0.121-0.098-0.045-0.185-0.096-0.261-0.156-0.075-0.060-0.134-0.13-0.177-0.209-0.042-0.079-0.064-0.171-0.064-0.276 0-0.102 0.022-0.194 0.067-0.276 0.045-0.084 0.107-0.155 0.188-0.214 0.080-0.060 0.175-0.107 0.285-0.139 0.11-0.032 0.232-0.049 0.363-0.049 0.18 0 0.337 0.032 0.47 0.097s0.238 0.154 0.311 0.266c0.075 0.113 0.112 0.242 0.112 0.387h-0.499c0-0.071-0.015-0.134-0.045-0.188-0.029-0.055-0.074-0.098-0.134-0.129-0.059-0.031-0.134-0.047-0.224-0.047-0.087 0-0.16 0.013-0.218 0.040-0.058 0.026-0.102 0.061-0.131 0.105-0.029 0.044-0.044 0.093-0.044 0.147 0 0.041 0.010 0.079 0.030 0.112 0.021 0.034 0.052 0.065 0.094 0.094s0.092 0.056 0.152 0.082c0.060 0.026 0.13 0.051 0.209 0.075 0.133 0.040 0.249 0.085 0.35 0.136 0.102 0.050 0.186 0.107 0.254 0.169s0.119 0.133 0.154 0.213c0.035 0.079 0.052 0.169 0.052 0.27 0 0.106-0.021 0.201-0.062 0.285s-0.101 0.155-0.179 0.213c-0.078 0.058-0.171 0.102-0.28 0.132s-0.229 0.045-0.363 0.045c-0.12 0-0.239-0.016-0.357-0.047-0.117-0.032-0.224-0.081-0.32-0.146-0.095-0.065-0.171-0.147-0.228-0.248s-0.085-0.219-0.085-0.357h0.504c0 0.076 0.012 0.14 0.035 0.192s0.056 0.095 0.099 0.127c0.044 0.032 0.095 0.056 0.154 0.070 0.060 0.015 0.126 0.022 0.198 0.022 0.087 0 0.158-0.012 0.214-0.037 0.057-0.025 0.099-0.059 0.126-0.102 0.028-0.044 0.042-0.093 0.042-0.147zM27.294 23.151v2.438h-0.501v-2.438h0.501zM28.044 23.151v0.393h-1.989v-0.393h1.989zM29.966 25.197v0.392h-1.297v-0.392h1.297zM28.832 23.151v2.438h-0.502v-2.438h0.502zM29.797 24.144v0.382h-1.128v-0.382h1.128zM29.964 23.151v0.393h-1.296v-0.393h1.296zM30.259 23.151h0.909c0.186 0 0.346 0.028 0.48 0.084 0.135 0.056 0.239 0.138 0.311 0.248s0.109 0.244 0.109 0.403c0 0.131-0.022 0.243-0.067 0.337-0.044 0.093-0.105 0.17-0.186 0.233-0.079 0.061-0.172 0.11-0.28 0.147l-0.159 0.084h-0.79l-0.003-0.392h0.588c0.088 0 0.161-0.016 0.219-0.047s0.102-0.075 0.131-0.131c0.030-0.056 0.045-0.12 0.045-0.194 0-0.078-0.015-0.146-0.044-0.203s-0.073-0.1-0.132-0.131-0.133-0.045-0.223-0.045h-0.407v2.044h-0.502v-2.438zM31.621 25.589l-0.556-1.086 0.531-0.003 0.562 1.066v0.023h-0.537zM34.258 24.72h-0.621v-0.392h0.621c0.096 0 0.174-0.016 0.234-0.047 0.060-0.032 0.104-0.077 0.132-0.134s0.042-0.121 0.042-0.192c0-0.073-0.014-0.14-0.042-0.203s-0.072-0.113-0.132-0.151-0.138-0.057-0.234-0.057h-0.447v2.044h-0.502v-2.438h0.949c0.191 0 0.354 0.035 0.49 0.104 0.137 0.068 0.242 0.162 0.315 0.283s0.109 0.258 0.109 0.413c0 0.157-0.036 0.294-0.109 0.408s-0.177 0.204-0.315 0.266c-0.136 0.062-0.3 0.094-0.49 0.094zM37.154 25.197v0.392h-1.297v-0.392h1.297zM36.021 23.151v2.438h-0.502v-2.438h0.502zM36.985 24.144v0.382h-1.128v-0.382h1.128zM37.153 23.151v0.393h-1.296v-0.393h1.296zM38.571 23.151v2.438h-0.501v-2.438h0.501zM39.321 23.151v0.393h-1.989v-0.393h1.989zM41.242 25.197v0.392h-1.297v-0.392h1.297zM40.109 23.151v2.438h-0.502v-2.438h0.502zM41.073 24.144v0.382h-1.128v-0.382h1.128zM41.241 23.151v0.393h-1.296v-0.393h1.296zM41.535 23.151h0.909c0.186 0 0.347 0.028 0.48 0.084 0.135 0.056 0.239 0.138 0.311 0.248s0.109 0.244 0.109 0.403c0 0.131-0.022 0.243-0.067 0.337-0.044 0.093-0.105 0.17-0.186 0.233-0.079 0.061-0.172 0.11-0.28 0.147l-0.159 0.084h-0.79l-0.003-0.392h0.588c0.088 0 0.161-0.016 0.219-0.047s0.102-0.075 0.131-0.131c0.030-0.056 0.045-0.12 0.045-0.194 0-0.078-0.014-0.146-0.044-0.203s-0.073-0.1-0.132-0.131c-0.059-0.030-0.133-0.045-0.223-0.045h-0.407v2.044h-0.502v-2.438zM42.898 25.589l-0.556-1.086 0.531-0.003 0.563 1.066v0.023h-0.537zM45.001 24.951c0-0.044-0.007-0.083-0.020-0.117-0.012-0.036-0.036-0.068-0.070-0.097-0.035-0.030-0.083-0.060-0.146-0.089s-0.143-0.059-0.243-0.090c-0.111-0.036-0.215-0.076-0.315-0.121-0.098-0.045-0.185-0.096-0.261-0.156-0.075-0.060-0.134-0.13-0.178-0.209-0.042-0.079-0.064-0.171-0.064-0.276 0-0.102 0.022-0.194 0.067-0.276 0.045-0.084 0.107-0.155 0.188-0.214 0.080-0.060 0.175-0.107 0.285-0.139 0.111-0.032 0.232-0.049 0.363-0.049 0.18 0 0.337 0.032 0.47 0.097s0.238 0.154 0.311 0.266c0.075 0.113 0.112 0.242 0.112 0.387h-0.499c0-0.071-0.015-0.134-0.045-0.188-0.029-0.055-0.074-0.098-0.134-0.129-0.059-0.031-0.134-0.047-0.224-0.047-0.087 0-0.16 0.013-0.218 0.040-0.058 0.026-0.102 0.061-0.131 0.105-0.029 0.044-0.044 0.093-0.044 0.147 0 0.041 0.010 0.079 0.030 0.112 0.021 0.034 0.052 0.065 0.094 0.094s0.092 0.056 0.152 0.082c0.060 0.026 0.13 0.051 0.209 0.075 0.133 0.040 0.249 0.085 0.35 0.136 0.102 0.050 0.186 0.107 0.254 0.169s0.119 0.133 0.154 0.213c0.035 0.079 0.052 0.169 0.052 0.27 0 0.106-0.021 0.201-0.062 0.285s-0.101 0.155-0.179 0.213c-0.078 0.058-0.171 0.102-0.28 0.132s-0.229 0.045-0.363 0.045c-0.12 0-0.239-0.016-0.357-0.047-0.117-0.032-0.224-0.081-0.32-0.146-0.095-0.065-0.171-0.147-0.228-0.248s-0.085-0.219-0.085-0.357h0.504c0 0.076 0.012 0.14 0.035 0.192s0.056 0.095 0.099 0.127c0.044 0.032 0.095 0.056 0.154 0.070 0.060 0.015 0.126 0.022 0.198 0.022 0.087 0 0.158-0.012 0.214-0.037 0.057-0.025 0.099-0.059 0.126-0.102 0.028-0.044 0.042-0.093 0.042-0.147z"></path>
</symbol>
<symbol id="icon-client-5" viewBox="0 0 59 32">
<path d="M15.31 25.356c0.14 0.156 0.215 0.352 0.211 0.553 0.007 0.131-0.018 0.262-0.075 0.383s-0.143 0.229-0.252 0.316c-0.273 0.185-0.61 0.276-0.951 0.255h-1.671v-3.504h1.637c0.323-0.019 0.644 0.063 0.907 0.233 0.106 0.080 0.19 0.18 0.245 0.294s0.080 0.238 0.073 0.361c0.010 0.193-0.058 0.383-0.19 0.536-0.127 0.139-0.303 0.236-0.498 0.274 0.222 0.036 0.422 0.143 0.565 0.3zM13.349 24.827h0.7c0.159 0.011 0.317-0.031 0.445-0.116 0.053-0.043 0.093-0.096 0.12-0.155s0.037-0.123 0.031-0.187c0.005-0.063-0.006-0.127-0.031-0.186s-0.066-0.113-0.117-0.156c-0.132-0.088-0.295-0.13-0.458-0.118h-0.688v0.919zM14.562 26.171c0.056-0.044 0.1-0.099 0.129-0.161s0.041-0.129 0.036-0.195c0.004-0.068-0.009-0.135-0.038-0.198s-0.074-0.118-0.131-0.162c-0.137-0.091-0.305-0.136-0.475-0.127h-0.734v0.964h0.743c0.167 0.009 0.333-0.034 0.47-0.122z"></path>
<path d="M18.656 26.862l-0.911-1.369h-0.342v1.369h-0.783v-3.504h1.483c0.374-0.023 0.744 0.083 1.032 0.298 0.207 0.19 0.332 0.441 0.353 0.707s-0.066 0.529-0.242 0.743c-0.183 0.189-0.433 0.314-0.707 0.356l0.97 1.4h-0.852zM17.403 25.015h0.641c0.445 0 0.668-0.177 0.668-0.531 0.005-0.072-0.008-0.145-0.036-0.212s-0.072-0.13-0.128-0.181c-0.141-0.105-0.322-0.156-0.504-0.142h-0.648l0.008 1.067z"></path>
<path d="M22.939 26.157h-1.561l-0.276 0.705h-0.821l1.434-3.465h0.888l1.428 3.465h-0.822l-0.27-0.705zM22.729 25.627l-0.57-1.479-0.57 1.479h1.141z"></path>
<path d="M28.299 26.863h-0.778l-1.744-2.383v2.383h-0.776v-3.504h0.776l1.744 2.397v-2.397h0.778v3.504z"></path>
<path d="M32.737 26.024c-0.161 0.265-0.406 0.48-0.704 0.618-0.339 0.154-0.714 0.23-1.093 0.221h-1.384v-3.504h1.384c0.378-0.009 0.754 0.065 1.093 0.216 0.298 0.135 0.543 0.348 0.704 0.611 0.16 0.285 0.243 0.6 0.243 0.919s-0.083 0.634-0.243 0.919zM31.847 25.94c0.222-0.233 0.344-0.529 0.344-0.836s-0.122-0.603-0.344-0.836c-0.268-0.211-0.618-0.318-0.974-0.298h-0.54v2.268h0.54c0.355 0.020 0.705-0.087 0.974-0.298z"></path>
<path d="M23.425 3.867c0 0 10.038 3.412 9.825 8.349v8.351c0 0-10.031-3.413-9.821-8.351l-0.004-8.349z"></path>
<path d="M42.194 18.611c1.896-1.175 4.089-1.902 6.378-2.116v-2.614c-2.638 0.915-4.875 2.575-6.378 4.73z"></path>
<path d="M41.055 19.399c1.552-2.813 4.242-4.983 7.517-6.065v-7.532c0 0-14.296 4.86-13.993 11.891v11.889c0 0 0.637-0.217 1.639-0.625 0-0.38 0-0.764 0.046-1.149 0.296-3.264 2.020-6.289 4.792-8.409z"></path>
<path d="M39.695 23.815c0.075-0.825 0.243-1.64 0.5-2.434-1.726 1.831-2.772 4.103-2.989 6.497-0.021 0.226-0.032 0.452-0.038 0.685 0.812-0.351 1.757-0.789 2.75-1.304-0.253-1.132-0.328-2.291-0.222-3.443z"></path>
<path d="M40.264 23.858c-0.095 1.042-0.036 2.090 0.177 3.117 3.906-2.104 8.294-5.355 8.125-9.284v-0.342c-2.791 0.281-5.401 1.379-7.431 3.126-0.475 1.082-0.769 2.222-0.871 3.383z"></path>
</symbol>
<symbol id="icon-client-6" viewBox="0 0 59 32">
<path d="M30.588 15.682c-0.254-0.338-0.375-0.737-0.346-1.138v-1.65c0-0.506 0.115-0.89 0.344-1.153s0.624-0.394 1.183-0.393c0.525 0 0.898 0.112 1.119 0.336 0.24 0.286 0.358 0.635 0.331 0.987v0.388h-0.94v-0.393c0.003-0.129-0.006-0.257-0.027-0.384-0.014-0.087-0.061-0.168-0.134-0.228-0.096-0.066-0.218-0.097-0.34-0.089-0.129-0.008-0.256 0.025-0.358 0.094-0.082 0.067-0.136 0.156-0.156 0.252-0.027 0.135-0.039 0.271-0.037 0.408v2.003c-0.015 0.193 0.027 0.387 0.121 0.562 0.047 0.060 0.112 0.107 0.188 0.136s0.16 0.041 0.242 0.032c0.12 0.009 0.24-0.024 0.333-0.091 0.077-0.066 0.126-0.151 0.14-0.243 0.022-0.133 0.032-0.267 0.029-0.401v-0.406h0.94v0.371c0.026 0.367-0.088 0.732-0.325 1.038-0.216 0.245-0.584 0.368-1.125 0.368s-0.949-0.131-1.181-0.403z"></path>
<path d="M34.501 15.699c-0.237-0.257-0.356-0.631-0.356-1.127v-1.736c0-0.49 0.119-0.861 0.356-1.113s0.634-0.377 1.191-0.376c0.553 0 0.947 0.125 1.185 0.376 0.237 0.252 0.358 0.623 0.358 1.113v1.736c0 0.49-0.121 0.866-0.362 1.125s-0.634 0.388-1.181 0.388-0.951-0.131-1.191-0.386zM36.129 15.282c0.085-0.161 0.124-0.337 0.113-0.514v-2.125c0.011-0.173-0.027-0.346-0.111-0.504-0.048-0.061-0.114-0.109-0.192-0.138s-0.164-0.040-0.248-0.030c-0.084-0.010-0.17 0-0.248 0.030s-0.145 0.077-0.193 0.138c-0.086 0.157-0.124 0.33-0.113 0.504v2.136c-0.012 0.177 0.027 0.353 0.113 0.514 0.055 0.054 0.122 0.098 0.198 0.127s0.158 0.045 0.242 0.045 0.166-0.015 0.242-0.045c0.076-0.030 0.143-0.073 0.198-0.127v-0.010z"></path>
<path d="M38.364 11.398h1.012l0.761 3.203 0.778-3.203h0.984l0.099 4.623h-0.728l-0.078-3.213-0.751 3.213h-0.584l-0.778-3.225-0.072 3.225h-0.735l0.091-4.623z"></path>
<path d="M43.133 11.398h1.576c0.908 0 1.362 0.438 1.362 1.313 0 0.838-0.478 1.257-1.434 1.256h-0.537v2.055h-0.973l0.006-4.623zM44.479 13.374c0.096 0.011 0.194 0.003 0.286-0.022s0.177-0.067 0.249-0.124c0.112-0.156 0.161-0.339 0.14-0.522 0.005-0.141-0.011-0.282-0.047-0.42-0.014-0.046-0.038-0.089-0.072-0.127s-0.075-0.069-0.123-0.093c-0.135-0.056-0.284-0.081-0.434-0.074h-0.377v1.382h0.377z"></path>
<path d="M47.474 11.398h1.045l1.072 4.623h-0.907l-0.212-1.066h-0.932l-0.218 1.066h-0.92l1.072-4.623zM48.367 14.419l-0.364-1.941-0.364 1.941h0.728z"></path>
<path d="M50.456 11.398h0.681l1.304 2.637v-2.637h0.807v4.623h-0.648l-1.311-2.753v2.753h-0.835l0.002-4.623z"></path>
<path d="M55.139 14.258l-1.084-2.854h0.912l0.661 1.833 0.621-1.833h0.893l-1.070 2.854v1.763h-0.934v-1.763z"></path>
<path d="M32.090 18.042v0.242h-0.794v1.879h-0.333v-1.879h-0.798v-0.242h1.924z"></path>
<path d="M34.578 20.163h-0.257c-0.026 0.001-0.052-0.006-0.072-0.020-0.019-0.012-0.034-0.029-0.043-0.049l-0.23-0.504h-1.101l-0.23 0.504c-0.007 0.021-0.019 0.041-0.035 0.057-0.020 0.014-0.046 0.021-0.072 0.020h-0.257l0.973-2.12h0.339l0.984 2.112zM32.968 19.375h0.918l-0.389-0.863c-0.029-0.065-0.053-0.132-0.072-0.2-0.014 0.040-0.025 0.079-0.037 0.113l-0.035 0.089-0.385 0.861z"></path>
<path d="M36.256 19.954c0.061 0.003 0.122 0.003 0.183 0 0.053-0.005 0.105-0.013 0.156-0.025 0.048-0.010 0.094-0.023 0.14-0.039 0.043-0.015 0.086-0.034 0.13-0.052v-0.477h-0.389c-0.010 0-0.019-0.001-0.028-0.004s-0.017-0.007-0.024-0.013c-0.006-0.005-0.011-0.011-0.015-0.017s-0.005-0.014-0.005-0.021v-0.163h0.755v0.813c-0.062 0.038-0.127 0.072-0.195 0.101-0.069 0.030-0.142 0.054-0.216 0.072-0.080 0.020-0.161 0.035-0.243 0.044-0.094 0.009-0.189 0.014-0.284 0.013-0.168 0.001-0.334-0.026-0.49-0.079-0.146-0.050-0.278-0.126-0.389-0.222-0.108-0.097-0.194-0.211-0.251-0.336-0.061-0.141-0.092-0.29-0.090-0.44-0.002-0.151 0.028-0.301 0.088-0.443 0.056-0.126 0.141-0.24 0.251-0.336 0.111-0.095 0.243-0.17 0.389-0.22 0.167-0.054 0.343-0.081 0.521-0.079 0.091-0 0.181 0.006 0.27 0.018 0.079 0.011 0.157 0.029 0.231 0.054 0.068 0.022 0.133 0.050 0.195 0.084 0.060 0.033 0.116 0.070 0.169 0.111l-0.093 0.131c-0.007 0.012-0.018 0.022-0.032 0.029s-0.029 0.011-0.044 0.011c-0.022-0.001-0.042-0.006-0.060-0.017-0.029-0.013-0.060-0.030-0.095-0.050-0.041-0.022-0.085-0.041-0.13-0.057-0.058-0.020-0.118-0.036-0.179-0.047-0.081-0.013-0.164-0.019-0.247-0.018-0.128-0.001-0.256 0.019-0.376 0.059-0.108 0.038-0.206 0.095-0.286 0.168-0.081 0.076-0.142 0.166-0.181 0.264-0.087 0.23-0.087 0.477 0 0.707 0.043 0.1 0.109 0.191 0.195 0.267 0.080 0.073 0.177 0.13 0.284 0.168 0.124 0.037 0.255 0.051 0.385 0.042z"></path>
<path d="M39.357 19.921h1.062v0.242h-1.387v-2.12h0.333l-0.008 1.879z"></path>
<path d="M41.524 20.162h-0.333v-2.12h0.333v2.12z"></path>
<path d="M42.761 18.052c0.020 0.010 0.037 0.023 0.051 0.039l1.422 1.598c-0.002-0.025-0.002-0.050 0-0.076 0-0.023 0-0.047 0-0.069v-1.511h0.29v2.129h-0.167c-0.025 0.002-0.050-0.002-0.072-0.012-0.020-0.011-0.038-0.024-0.053-0.040l-1.42-1.597c0 0.025 0 0.049 0 0.072s0 0.045 0 0.066v1.511h-0.278v-2.12h0.173c0.019 0 0.037 0.003 0.054 0.010z"></path>
<path d="M46.974 18.042v0.233h-1.179v0.7h0.955v0.225h-0.955v0.724h1.179v0.233h-1.521v-2.115h1.521z"></path>
<path d="M12.112 4.948l14.772 3.619v12.683l-14.772-3.618v-12.685zM11.164 3.867v14.382l16.666 4.084v-14.38l-16.666-4.086z"></path>
<path d="M20.096 29.010l-16.667-4.088v-14.381l16.667 4.086v14.382z"></path>
<path d="M11.44 4.785l14.58 3.574-6.2 5.352-14.582-3.576 6.202-5.35zM11.164 3.867l-7.735 6.675 16.667 4.086 7.733-6.675-16.666-4.086z"></path>
<path d="M21.034 28.201l6.796-5.866-6.796-1.667v7.532z"></path>
</symbol>
</defs>
</svg>
